<svg xmlns="http://www.w3.org/2000/svg" width="524.366" height="536.75" viewBox="0 0 524.366 536.75">
  <g id="Group_54382" data-name="Group 54382" transform="translate(11212 -3989.25)">
    <g id="Group_54381" data-name="Group 54381" transform="translate(-11247.389 3876.03)">
      <path id="Path_2" data-name="Path 2" d="M193.7,113.22c5.02,7.78,9.51,15.89,14.25,23.84a520.282,520.282,0,0,0,32.2,47.85c22.15,29.78,48.09,56.84,77.62,79.37a291.439,291.439,0,0,0,69.49,40.45c16.14,7.03,33.43,10.88,50.67,14.15,2.21.22,5.01,1.77,3.36,4.3a225.114,225.114,0,0,1-23.71,37.6c-23.02,30.12-52.6,55.51-86.84,72a232.1,232.1,0,0,1-68.61,20.92c-29.23,4.07-59.02,3.04-88.11-1.6-4.13-.62-8.26-1.15-12.39-1.7-.6-.7-1.21-1.39-1.81-2.08,5.34-.87,10.78-.56,16.14-1.27,21.68-2.74,43.4-6.16,64.27-12.82,40.62-12.49,78.76-35.06,106.48-67.6a184.209,184.209,0,0,0,21.52-31.45c1.64-2.3-.92-3.91-2.82-4.59-45.25-20.07-86.77-49.29-118.94-87.08-21.29-24.82-37.64-54.11-46.22-85.74C196.42,143.25,193.42,128.31,193.7,113.22Z" fill="#9a090c"/>
      <path id="Path_3" data-name="Path 3" d="M379.82,234.78c32.69-2.88,66.77,4.6,93.83,23.59,8.19,5.96,16.74,12.27,21.63,21.39-6.82-1.23-13.95-2.67-20.74-.48-7.47,1.96-13.25,7.74-16.86,14.36a9.015,9.015,0,0,1-9.18,4.59c-24.08-2.07-46.95-10.9-68.6-21.19a415.621,415.621,0,0,1-41.79-23.12c-1.63-1.05-4.34-3.06-2.34-5.07C349.08,240.8,364.43,236.52,379.82,234.78Z" fill="#9a090c"/>
      <path id="Path_4" data-name="Path 4" d="M250.96,487.08c.66-2.43,1.35-5.37,3.91-6.46,3.38-.54,6.79.14,10.19.03,3.54,0,7.25-.89,10.57.78-.14,1.52-.35,3.03-.62,4.55-9.27,35.72-19.18,71.28-28.2,107.07-.65,3.24-3.12,6.58-6.76,6.38-5.87-.4-11.86.5-17.6-1,.28-4.58,1.77-8.94,2.89-13.36C233.9,552.41,242.61,519.79,250.96,487.08Z" fill="#199fdd"/>
      <g id="Group_1" data-name="Group 1">
        <path id="Path_5" data-name="Path 5" d="M358.64,481.48c4.37-1.2,8.9-.22,13.35-.42,2.52.12,5.49-.36,7.5,1.53.67,4.67-1.2,9.18-2.13,13.68-2.11,9.59-5.3,18.88-8.02,28.29,6.64-.79,12.69-4.92,19.56-3.98,7.86.58,14.32,6.89,16.14,14.39,3.35,13.03.88,27.09-5.13,38.98-4.92,9.79-12.54,18.62-22.62,23.29-4.44,1.89-9.52,3.05-14.24,1.53-4.23-.98-7.31-4.25-11.06-6.19-1,2.61-1.07,6.79-4.87,6.61-6.58-.04-13.29.7-19.79-.61a32.017,32.017,0,0,1,.47-4.6c9.55-36,19.27-71.97,28.48-108.05A18.8,18.8,0,0,1,358.64,481.48Zm15.72,55.74a32.69,32.69,0,0,0-12.39,17.8c-1.58,5.56-3.18,11.36-2.27,17.19.27,2.45.87,5.55,3.57,6.43,2.92,1.49,6.33.36,8.56-1.8,9.22-9.25,14.04-22.9,12.04-35.86C383.01,536.97,377.71,534.96,374.36,537.22Z" fill="#199fdd"/>
      </g>
      <path id="Path_6" data-name="Path 6" d="M195.58,489.57a6.113,6.113,0,0,1,6.37-3.78c5.88.36,12.29-1.2,17.69,1.88-.05,6.1-3.4,11.44-4.52,17.34-.87,4.87-3.27,9.54-2.84,14.57,6.18.8,12.41.26,18.61.65.61,3.51-.56,6.97-1.37,10.35-.73,2.51-1.58,5.72-4.53,6.39-5.95,1.64-12.29-.15-18.23,1.65a59.722,59.722,0,0,0-2.34,6.95c-3.92,15.61-8.1,31.15-11.98,46.77-.58,2.15-.97,4.69-2.98,6.03-2,1.02-4.32.68-6.47.66-4.93-.25-9.87.07-14.8-.31a10.8,10.8,0,0,1,.16-5.21c4.12-14.76,7.66-29.67,11.75-44.43.89-3.54,2.27-7.09,1.74-10.81-5-.85-10.08-.36-15.11-.85-.29-.55-.88-1.63-1.17-2.18.98-4.37,1.72-8.89,3.68-12.95,1.17-2.58,4.48-2.02,6.78-2.34,3.72-.42,7.56.43,11.19-.56C191.61,509.93,191.12,498.99,195.58,489.57Z" fill="#199fdd"/>
      <g id="Group_2" data-name="Group 2">
        <path id="Path_7" data-name="Path 7" d="M301.41,519.5c9.07-1.4,18.88,2.2,24.32,9.7,5.03,6.73,6.58,15.35,6.48,23.58-.78,13.75-5.89,27.76-16.31,37.11-6.43,5.69-14.32,10.17-22.96,11.16a25.409,25.409,0,0,1-24.69-12.39c-4.6-7.7-5.52-17.06-4.53-25.82a54.135,54.135,0,0,1,14-30.2A40.111,40.111,0,0,1,301.41,519.5Zm.99,18.94c-8.41,5.28-13.48,14.8-15.74,24.26-.77,4.86-1.35,10.01.02,14.81,1.61,4.7,8.25,4.82,11.28,1.46a44.113,44.113,0,0,0,13.3-29.01c.1-2.8.15-5.74-.95-8.37A6.157,6.157,0,0,0,302.4,538.44Z" fill="#199fdd"/>
      </g>
      <g id="Group_3" data-name="Group 3">
        <path id="Path_8" data-name="Path 8" d="M496.65,532.74c5.5-6.47,12.2-13.66,21.37-13.63,5.87-.67,11.35,1.61,16.28,4.52,2.94,1.48,2.66-4.02,5.58-3.49,6.61-.07,13.27-.48,19.86.25a18.462,18.462,0,0,1-.48,5.49c-4.31,15.93-8.34,31.94-12.56,47.9a16.318,16.318,0,0,0-.4,5.62c2.47.83,4.98,1.6,7.51,2.3-.85,6.34-2.36,14.4-9.05,17.07-5.71,2.09-12.43,3.15-18.13.52-2.65-1.17-4.47-4.19-7.52-4.25-3.72,1.39-6.9,4.19-10.97,4.65-5.43.65-11.43.53-16.03-2.82-7.2-4.66-9.58-13.8-9.64-21.9A60.411,60.411,0,0,1,496.65,532.74Zm22.33,6.3c-7.81,6.05-11.96,15.81-13.47,25.36-.39,5.03-1.23,10.82,2.21,15.05,2.37.52,5.09,1.39,7.12-.5,8.3-6.95,12.59-17.54,14.29-28.01a16.65,16.65,0,0,0-1.65-11.55C525.54,536.51,521.35,537,518.98,539.04Z" fill="#199fdd"/>
      </g>
      <path id="Path_9" data-name="Path 9" d="M420.79,525.77c.63-2.23,1.41-5.36,4.24-5.52,5.97-.1,11.96-.04,17.94.11,1.81-.04,2.16,2.19,3.03,3.34,7.17-1.84,14.75-4.56,22.12-1.99a19.272,19.272,0,0,1,13.61,19.41c-.66,7.36-3.16,14.39-5.07,21.49q-5.115,19.11-9.57,38.4c-.52,2.17-1.07,4.69.36,6.67,1.39,2.31,4.42,2.46,6.27,4.21-.89,3.65-3.09,6.81-4.57,10.24-1.75,3.19-2.86,6.85-5.42,9.51-4.58,1.12-9.36-.57-12.99-3.36-5.15-3.76-7.33-10.28-8.09-16.36-1.16-10.65,3.29-20.71,5.77-30.84,2.59-10.69,5.68-21.25,8.18-31.96a20.3,20.3,0,0,0,.81-6.42c-1.56-2.06-4.59-3.84-7.11-2.45-5.6,3.01-11.44,7.21-13.11,13.71-3.51,13.45-6.86,26.95-11.07,40.21-.88,1.92-1.42,4.95-4.06,5.03-3.67.31-7.34-.26-11.01-.29-2.44-.2-5.38.23-7.27-1.7-1.12-2.69.01-5.61.53-8.3C409.8,567.86,415.38,546.83,420.79,525.77Z" fill="#199fdd"/>
      <path id="Path_10" data-name="Path 10" d="M161.65,154.6c2.26,5.14,3.8,10.56,5.69,15.83,16.26,46.06,44.23,88.09,81.24,120.06a304.339,304.339,0,0,0,67.37,44.45c4.06,2.1,8.52,3.35,12.47,5.65,2.13,1.64.02,4.24-1.16,5.76a218.105,218.105,0,0,1-48.79,44.9c-23.54,15.18-49.72,27.05-77.61,31.07-7.34.96-14.76,2.05-22.17,1.73,28.8-14.99,56.17-33.99,76.63-59.5,4.16-5.34,8.92-10.37,11.8-16.56a12.731,12.731,0,0,0-4.6-5.41c-30.21-22.32-56.63-50.17-75.4-82.82-14.67-25.2-24.7-53.58-25.98-82.87C161.1,169.46,160.57,161.99,161.65,154.6Z" fill="#199fdd"/>
      <g id="Group_5" data-name="Group 5">
        <path id="Path_11" data-name="Path 11" d="M79.37,452.32c10.67-7.93,24.39-12.67,37.72-10.12a42.1,42.1,0,0,1,27.72,16.77c9.77,13.5,13.71,30.55,13.45,47.03-.83,19.41-5.8,38.83-15.47,55.76-8.1,13.4-18.54,25.87-32.09,34-12.49,7.44-28.28,10.19-42.21,5.42-10.03-3.53-17.84-11.56-22.95-20.7-10.31-17.15-12.04-38.16-8.43-57.53,2.15-11.39,5.05-22.91,11.06-32.94,1.79-3.03,5.86-2.44,8.84-2.51,8.51.3,15.95-5.56,19.88-12.75-8.84,4.62-19.08,5.88-28.91,5.24-2.88.12-2.85-3.13-2.06-5.05,1.43-4.3,1.32-9.2,4-13.01,1.52-2.33,4.64-2.02,7.04-1.87C65.16,461.11,73.06,457.23,79.37,452.32Zm29.8,17.79a25.849,25.849,0,0,0-11.26,6.82,77.169,77.169,0,0,0-17.69,25.31c-6.56,16.06-12.23,33.13-11.23,50.72.31,7.7,1.66,16.12,7.19,21.91,3.87,3.85,10.08,3.52,14.63,1.13,8.22-3.81,13.51-11.48,18.47-18.72,12.35-18.62,18.49-41.02,18.46-63.29-.17-6.47-1.4-13.14-4.93-18.66C120.06,470.85,114.26,468.27,109.17,470.11Z" fill="#9a090c"/>
      </g>
      <g id="Group_6" data-name="Group 6">
        <path id="Path_12" data-name="Path 12" d="M182.56,617.1c5.25.17,11.09-1.31,15.84,1.62,3.76,2.86,4.82,7.97,4.23,12.45-.3,4.56-2.99,9.59-7.83,10.53-4.05.55-8.16.15-12.23.2C182.56,633.63,182.61,625.36,182.56,617.1Zm3.19,2.99c.17,6.26.11,12.52.03,18.78,4.15.19,9.96,1.34,12.31-3.16a14.436,14.436,0,0,0-.01-12.77C195.37,618.87,189.88,620.1,185.75,620.09Z" fill="#9a090c"/>
      </g>
      <path id="Path_13" data-name="Path 13" d="M225.29,618.02c.73.03,2.18.11,2.9.14-.07,7.91-.06,15.81-.02,23.72l-2.89.04C225.31,633.95,225.28,625.98,225.29,618.02Z" fill="#9a090c"/>
      <path id="Path_14" data-name="Path 14" d="M233.1,618.23c.7-.05,2.11-.14,2.81-.19-.01.73-.03,2.2-.04,2.93-.67-.03-2.02-.08-2.7-.11C233.16,620.2,233.12,618.89,233.1,618.23Z" fill="#9a090c"/>
      <g id="Group_7" data-name="Group 7">
        <path id="Path_15" data-name="Path 15" d="M316.83,621.16c1.8-4.48,9.79-4.16,10.57.83.78,3.2-1.74,5.66-4.19,7.2,1.4,1.9,2.86,3.76,4.31,5.63.45-1.23.87-2.48,1.29-3.71l2.81.04c-.7,2.04-1.37,4.08-2.12,6.1,1.42,1.78,2.73,3.89,5.15,4.38-.46.48-.91.97-1.35,1.48-1.05-.28-2.1-.56-3.14-.84-.78-.86-1.56-1.72-2.34-2.56-2.66,2.33-6.17,4.09-9.78,2.99-3.89-.72-5.63-5.52-4.18-8.92.74-2.38,3.11-3.52,4.96-4.92C317.17,626.69,315.55,623.92,316.83,621.16Zm2.6.17c-1.09,2.36.98,4.42,2.49,5.97,1.22-1.55,3.43-2.93,2.88-5.22C324.32,619.64,320.61,619.15,319.43,621.33Zm-2.93,16.2c1.97,3.63,7.01,2.94,9.42.17-.99-2.95-3.71-5-5.48-7.51C318.04,631.88,315.44,634.25,316.5,637.53Z" fill="#9a090c"/>
      </g>
      <g id="Group_8" data-name="Group 8">
        <path id="Path_16" data-name="Path 16" d="M209.02,642.01c-6.47-4.4-4.7-17.55,3.9-18.02,5.54-.63,9.05,4.88,8.57,9.91-4.5.03-8.99.06-13.49.06.47,2.88,1.32,6.96,5,7.02,2.68.48,4.22-1.88,5.43-3.81.71-.02,2.12-.05,2.83-.07C219.81,642.27,213.65,644.47,209.02,642.01Zm-.96-10.09c3.46.16,6.93.17,10.39.04-.29-2.91-1.97-6.48-5.44-6.07C209.88,626.17,208.69,629.3,208.06,631.92Z" fill="#9a090c"/>
      </g>
      <path id="Path_17" data-name="Path 17" d="M238.16,624.11c1.13-.03,2.27-.04,3.41-.06,1.43,4.84,2.99,9.63,4.62,14.4,2.1-4.61,3.45-9.51,5.03-14.3l3.28-.2c-2.17,5.99-4.63,11.88-6.57,17.95-1.13-.04-2.26-.08-3.38-.1C242.62,635.83,240.35,629.98,238.16,624.11Z" fill="#9a090c"/>
      <g id="Group_9" data-name="Group 9">
        <path id="Path_18" data-name="Path 18" d="M256.29,631.86c.16-5.65,6.78-9.88,11.84-6.99,3.6,1.43,4.15,5.65,4.3,9.03-4.51.06-9.04-.14-13.53.33a35.441,35.441,0,0,0,2.05,5.75c.99.42,1.98.85,2.97,1.3a6.783,6.783,0,0,0,5.51-4.14c.7,0,2.11,0,2.82.01a8.377,8.377,0,0,1-9.35,5.75C257.7,642.29,255.42,636.49,256.29,631.86Zm2.64-.04a61.1,61.1,0,0,0,10.65.07c-.5-2.81-2.01-6.65-5.59-5.84C260.85,626.07,259.78,629.38,258.93,631.82Z" fill="#9a090c"/>
      </g>
      <path id="Path_19" data-name="Path 19" d="M276.27,624.04c.67-.01,2.01-.04,2.68-.06-.03.79-.08,2.37-.11,3.16a6.766,6.766,0,0,1,5.86-3.38c.01.72.04,2.17.05,2.9-2.19.28-4.84,1.05-5.37,3.54-.49,3.84-.14,7.73-.19,11.6-.72.04-2.17.13-2.9.17C276.26,635.99,276.3,630.02,276.27,624.04Z" fill="#9a090c"/>
      <path id="Path_20" data-name="Path 20" d="M285.32,624.03c.86.04,2.59.12,3.46.17,1.25,4.86,3.16,9.53,4.51,14.37,1.98-4.73,3.38-9.66,4.97-14.52.8.01,2.4.01,3.2.02-3.24,8.5-5.41,17.47-9.79,25.49-1.6.15-3.21.29-4.81.41-.02-.65-.06-1.94-.07-2.59,3,.12,4.4-2.06,5.17-4.61Q288.66,633.4,285.32,624.03Z" fill="#9a090c"/>
      <path id="Path_21" data-name="Path 21" d="M351.86,624.71c2.87-1.01,6.66-1.19,8.23,1.99,2.33-3.1,8.14-4.07,10.21-.26,1.55,4.96.63,10.27.89,15.38l-3.13.2c-.12-4.35.17-8.71-.13-13.05-.8-2.75-4.2-1.88-6.25-1.38-2.08,4.5-.91,9.54-1.24,14.31-.74-.01-2.2-.04-2.93-.06-.14-4.61.44-9.3-.38-13.85a4.273,4.273,0,0,0-6.83,1.98c-.61,3.97-.28,8.01-.38,12.01l-2.76-.16c.02-5.86-.06-11.72.01-17.58,2.02-.07,3.28.84,3.46,2.95C351.03,626.35,351.45,625.53,351.86,624.71Z" fill="#9a090c"/>
      <g id="Group_10" data-name="Group 10">
        <path id="Path_22" data-name="Path 22" d="M379.37,624.49c3.48-1.24,8.13-.15,9.9,3.32a10.957,10.957,0,0,1-1.4,12.08,8.913,8.913,0,0,1-11.66-.1C372.32,635.3,373.28,626.55,379.37,624.49Zm-.6,2.22c-1.7,3.2-2.82,7.17-1.07,10.6,1.31,3.53,7.15,3.86,8.66.28,1.58-3.45,2.01-8.85-1.76-11.05C382.76,625.43,380.67,626.34,378.77,626.71Z" fill="#9a090c"/>
      </g>
      <path id="Path_23" data-name="Path 23" d="M394.27,624.09c.67-.01,2-.04,2.67-.05.12.7.35,2.1.47,2.8a5.5,5.5,0,0,1,5.29-3.02c.03.68.08,2.05.11,2.74-2.1.48-4.63,1.09-5.36,3.42-.65,3.94-.24,7.97-.24,11.95-.73-.01-2.19-.04-2.91-.05C394.25,635.95,394.32,630.02,394.27,624.09Z" fill="#9a090c"/>
      <g id="Group_11" data-name="Group 11">
        <path id="Path_24" data-name="Path 24" d="M406.57,626.54c3.22-3.87,10.34-3.26,12.68,1.25a24.581,24.581,0,0,1,1.29,6.15c-4.51.05-9.02-.21-13.51.28.57,2.45.94,6,3.95,6.62,2.77,1.04,5.36-1.11,6.3-3.59l2.95-.24c-.96,1.68-1.56,3.81-3.44,4.74-3.83,2.39-9.59,1.25-11.6-2.98C403.51,634.88,403.83,629.87,406.57,626.54Zm4.62-.32c-2.84.37-3.4,3.44-4.19,5.67a90.05,90.05,0,0,0,10.52.06c-.41-1.49-.81-2.97-1.19-4.44C414.73,626.7,413.06,625.29,411.19,626.22Z" fill="#9a090c"/>
      </g>
      <path id="Path_25" data-name="Path 25" d="M233.14,641.9q.045-8.745.08-17.48c.74.02,2.21.08,2.95.1.01,5.79-.09,11.57,0,17.36C235.42,641.89,233.9,641.9,233.14,641.9Z" fill="#9a090c"/>
    </g>
  </g>
</svg>
